<svg width="40" height="40" viewBox="0 0 40 40" fill="none" xmlns="http://www.w3.org/2000/svg">
<path d="M0 36.1938H40V38.0938H0V36.1938ZM30.475 1.90625V3.80625H28.5625V32.3813H30.475V34.2813H36.1875V32.3813H38.0875V3.80625H36.1875V1.90625H30.475ZM19.05 28.5688H20.95V30.4688H19.05V28.5688ZM19.05 22.8563H20.95V24.7563H19.05V22.8563ZM19.05 17.1438H20.95V19.0438H19.05V17.1438ZM19.05 11.4313H20.95V13.3313H19.05V11.4313Z" fill="white"/>
<path d="M20.95 11.4312H22.85V15.2312H20.95V17.1437H22.85V20.9562H20.95V22.8562H22.85V26.6687H20.95V28.5687H22.85V32.3812H24.7625V9.51865H22.85V7.61865H17.1375V9.51865H20.95V11.4312Z" fill="white"/>
<path d="M22.8499 34.2813V32.3813H19.0499V30.4688H17.1374V26.6688H19.0499V24.7563H17.1374V20.9563H19.0499V19.0438H17.1374V15.2313H19.0499V13.3313H17.1374V9.5188H15.2374V32.3813H17.1374V34.2813H22.8499ZM9.5249 20.9563H11.4249V32.3813H9.5249V20.9563ZM3.8124 32.3813H9.5249V34.2813H3.8124V32.3813ZM3.8124 19.0438H9.5249V20.9563H3.8124V19.0438ZM1.8999 20.9563H3.8124V32.3813H1.8999V20.9563Z" fill="white"/>
</svg>
