<svg width="36" height="36" viewBox="0 0 36 36" fill="none" xmlns="http://www.w3.org/2000/svg">
<path d="M30.8587 13.7137H32.5687V22.2862H30.8587V13.7137ZM29.1487 22.2862H30.8587V25.7174H29.1487V22.2862ZM29.1487 10.2824H30.8587V13.7137H29.1487V10.2824ZM30.8587 8.5724V6.8624H32.5687V5.14115H23.9962V13.7137H25.7174V12.0037H27.4274V10.2824H29.1487V8.5724H30.8587ZM27.4274 25.7174H29.1487V27.4274H27.4274V25.7174ZM25.7174 27.4274H27.4274V29.1487H25.7174V27.4274ZM22.2862 29.1487H25.7174V30.8587H22.2862V29.1487ZM15.4237 30.8587H22.2862V32.5687H15.4237V30.8587ZM13.7137 3.43115H20.5762V5.14115H13.7137V3.43115ZM10.2824 5.14115H13.7137V6.8624H10.2824V5.14115ZM8.5724 6.8624H10.2824V8.5724H8.5724V6.8624ZM6.8624 8.5724H8.5724V10.2824H6.8624V8.5724ZM5.14115 27.4274V29.1487H3.43115V30.8587H12.0037V22.2862H10.2824V23.9962H8.5724V25.7174H6.8624V27.4274H5.14115Z" fill="white"/>
<path d="M5.14115 22.2862H6.8624V25.7175H5.14115V22.2862ZM5.14115 10.2825H6.8624V13.7137H5.14115V10.2825ZM3.43115 13.7137H5.14115V22.2862H3.43115V13.7137Z" fill="white"/>
</svg>
