<svg width="18" height="30" viewBox="0 0 18 30" fill="none" xmlns="http://www.w3.org/2000/svg">
<rect x="2" y="29" width="14" height="1" fill="white"/>
<rect x="10" y="28" width="7" height="1" fill="white"/>
<rect width="7" height="1" transform="matrix(-1 0 0 1 8 28)" fill="white"/>
<rect x="11" y="27" width="7" height="1" fill="white"/>
<rect width="7" height="1" transform="matrix(-1 0 0 1 7 27)" fill="white"/>
<rect x="11" y="26" width="7" height="1" fill="white"/>
<rect width="7" height="1" transform="matrix(-1 0 0 1 7 26)" fill="white"/>
<rect y="24" width="18" height="1" fill="white"/>
<rect x="10" y="25" width="8" height="1" fill="white"/>
<rect width="8" height="1" transform="matrix(-1 0 0 1 8 25)" fill="white"/>
<rect x="16" y="2" width="2" height="22" fill="white"/>
<rect y="2" width="2" height="22" fill="white"/>
<rect x="2" y="4" width="14" height="2" fill="white"/>
<rect x="1" y="1" width="16" height="1" fill="white"/>
<rect x="2" width="14" height="1" fill="white"/>
<rect x="2" y="2" width="14" height="1" fill="white"/>
<rect x="2" y="3" width="5" height="1" fill="white"/>
<rect x="11" y="3" width="5" height="1" fill="white"/>
</svg>
