<svg width="43" height="43" viewBox="0 0 43 43" fill="none" xmlns="http://www.w3.org/2000/svg">
<g clip-path="url(#clip0_73_3123)">
<path d="M38.9014 12.2819H42.9999V14.3378H38.9014V12.2819ZM38.9014 28.6622H42.9999V30.7181H38.9014V28.6622ZM38.9014 20.4788H42.9999V22.5212H38.9014V20.4788ZM36.8589 36.8591H38.9014V38.9016H36.8589V36.8591ZM36.8589 4.09844H38.9014V6.14094H36.8589V4.09844ZM34.8164 34.8031H36.8589V36.8591H34.8164V34.8031ZM34.8164 16.3803H36.8589V26.6197H34.8164V16.3803ZM34.8164 6.14094H36.8589V8.18344H34.8164V6.14094ZM32.7605 26.6197H34.8164V30.7181H32.7605V26.6197ZM32.7605 12.2819H34.8164V16.3803H32.7605V12.2819ZM30.718 10.2394H32.7605V12.2819H30.718V10.2394ZM28.6755 38.9016H30.718V43H28.6755V38.9016ZM28.6755 32.7606H26.6196V34.8031H30.718V32.7606H32.7605V30.7181H28.6755V32.7606ZM28.6755 0H30.718V4.09844H28.6755V0ZM26.6196 28.6622H28.6755V30.7181H26.6196V28.6622ZM26.6196 8.18344H30.718V10.2394H26.6196V8.18344ZM16.3802 34.8031H26.6196V36.8591H16.3802V34.8031ZM20.4786 38.9016H22.5211V43H20.4786V38.9016ZM20.4786 0H22.5211V4.09844H20.4786V0ZM16.3802 26.6197H26.6196V28.6622H16.3802V26.6197ZM16.3802 6.14094H26.6196V8.18344H16.3802V6.14094ZM14.3377 32.7606V30.7181H10.2393V32.7606H12.2952V34.8031H16.3802V32.7606H14.3377ZM14.3377 28.6622H16.3802V30.7181H14.3377V28.6622Z" fill="white"/>
<path d="M16.3803 18.4228H18.4363V16.3803H24.5772V18.4228H26.6197V26.6197H28.6756V14.3378H26.6197V12.2819H16.3803V14.3378H14.3378V26.6197H16.3803V18.4228ZM12.2953 8.18344H16.3803V10.2394H12.2953V8.18344ZM12.2953 38.9016H14.3378V43H12.2953V38.9016ZM12.2953 0H14.3378V4.09844H12.2953V0ZM10.2394 10.2394H12.2953V12.2819H10.2394V10.2394ZM8.19687 26.6197H10.2394V30.7181H8.19687V26.6197ZM8.19687 12.2819H10.2394V16.3803H8.19687V12.2819ZM6.14094 34.8031H8.19687V36.8591H6.14094V34.8031ZM6.14094 16.3803H8.19687V26.6197H6.14094V16.3803ZM6.14094 6.14094H8.19687V8.18344H6.14094V6.14094ZM4.09844 36.8591H6.14094V38.9016H4.09844V36.8591ZM4.09844 4.09844H6.14094V6.14094H4.09844V4.09844ZM0 28.6622H4.09844V30.7181H0V28.6622ZM0 20.4788H4.09844V22.5212H0V20.4788ZM0 12.2819H4.09844V14.3378H0V12.2819Z" fill="white"/>
</g>
<defs>
<clipPath id="clip0_73_3123">
<rect width="43" height="43" fill="white"/>
</clipPath>
</defs>
</svg>
