<svg width="30" height="30" viewBox="0 0 30 30" fill="none" xmlns="http://www.w3.org/2000/svg">
<g clip-path="url(#clip0_83_3859)">
<path d="M28.575 11.4281H30V27.1406H28.575V11.4281ZM28.575 2.85938H30V7.14375H28.575V2.85938ZM27.1406 27.1406H28.575V28.575H27.1406V27.1406ZM27.1406 7.14375H28.575V8.56875H27.1406V7.14375ZM27.1406 1.425H28.575V2.85938H27.1406V1.425ZM25.7156 8.56875H27.1406V10.0031H25.7156V8.56875ZM25.7156 5.71875H27.1406V7.14375H25.7156V5.71875ZM2.85938 28.575H27.1406V30H2.85938V28.575ZM24.2906 10.0031H25.7156V11.4281H24.2906V10.0031ZM24.2906 4.28438H25.7156V5.71875H24.2906V4.28438ZM22.8563 0H27.1406V1.425H22.8563V0ZM22.8563 11.4281H24.2906V12.8531H22.8563V11.4281ZM22.8563 5.71875H24.2906V7.14375H22.8563V5.71875ZM22.8563 2.85938H24.2906V4.28438H22.8563V2.85938ZM21.4313 12.8531H22.8563V14.2875H21.4313V12.8531ZM21.4313 7.14375H22.8563V8.56875H21.4313V7.14375ZM21.4313 1.425H22.8563V2.85938H21.4313V1.425ZM19.9969 14.2875H21.4313V15.7125H19.9969V14.2875ZM19.9969 8.56875H21.4313V10.0031H19.9969V8.56875ZM19.9969 2.85938H21.4313V4.28438H19.9969V2.85938ZM18.5719 15.7125H19.9969V17.1469H18.5719V15.7125ZM18.5719 10.0031H19.9969V11.4281H18.5719V10.0031ZM18.5719 4.28438H19.9969V5.71875H18.5719V4.28438ZM17.1469 14.2875H18.5719V15.7125H17.1469V14.2875ZM17.1469 11.4281H18.5719V12.8531H17.1469V11.4281ZM17.1469 5.71875H18.5719V7.14375H17.1469V5.71875Z" fill="white"/>
<path d="M15.7125 15.7125H14.2875V14.2875H12.8531V11.4282H11.4281V18.5719H18.5719V17.1469H15.7125V15.7125ZM15.7125 12.8532H17.1469V14.2875H15.7125V12.8532ZM15.7125 7.1438H17.1469V8.5688H15.7125V7.1438ZM14.2875 11.4282H15.7125V12.8532H14.2875V11.4282ZM14.2875 8.5688H15.7125V10.0032H14.2875V8.5688ZM12.8531 10.0032H14.2875V11.4282H12.8531V10.0032ZM2.85938 1.42505H17.1469V2.85942H2.85938V1.42505ZM1.425 27.1407H2.85938V28.575H1.425V27.1407ZM1.425 2.85942H2.85938V4.28442H1.425V2.85942ZM0 4.28442H1.425V27.1407H0V4.28442Z" fill="white"/>
</g>
<defs>
<clipPath id="clip0_83_3859">
<rect width="30" height="30" fill="white"/>
</clipPath>
</defs>
</svg>
