<svg width="30" height="30" viewBox="0 0 30 30" fill="none" xmlns="http://www.w3.org/2000/svg">
<path d="M28.575 20.7093H27.1406V22.1437H25.7156V23.5687H24.2906V24.9937H22.8562V26.428H18.5719V24.9937H17.1469V23.5687H15.7125V20.7093H18.5719V22.1437H20.0063V23.5687H21.4313V22.1437H22.8562V20.7093H24.2906V19.2843H25.7156V17.8499H28.575V16.4249H27.1406V14.9999H25.7156V13.5655H18.5719V14.9999H17.1469V16.4249H15.7125V17.8499H14.2875V24.9937H15.7125V26.428H17.1469V27.853H18.5719V29.2874H25.7156V27.853H27.1406V26.428H28.575V24.9937H30V17.8499H28.575V20.7093ZM27.1406 7.85615H28.575V10.7155H27.1406V7.85615ZM25.7156 6.42178H27.1406V7.85615H25.7156V6.42178ZM25.7156 10.7155H27.1406V12.1405H25.7156V10.7155ZM24.2906 4.99678H25.7156V6.42178H24.2906V4.99678ZM21.4313 3.57178H24.2906V4.99678H21.4313V3.57178ZM18.5719 2.1374H21.4313V3.57178H18.5719V2.1374ZM18.5719 6.42178H20.0063V12.1405H18.5719V6.42178ZM17.1469 4.99678H18.5719V6.42178H17.1469V4.99678ZM15.7125 7.85615H17.1469V10.7155H15.7125V7.85615ZM14.2875 6.42178H15.7125V7.85615H14.2875V6.42178ZM11.4281 13.5655H15.7125V14.9999H11.4281V13.5655ZM11.4281 3.57178H17.1469V4.99678H11.4281V3.57178ZM10.0031 0.712402H18.5719V2.1374H10.0031V0.712402ZM10.0031 4.99678H11.4281V6.42178H10.0031V4.99678ZM10.0031 12.1405H11.4281V13.5655H10.0031V12.1405ZM10.0031 16.4249H12.8625V17.8499H10.0031V16.4249ZM7.14375 2.1374H10.0031V3.57178H7.14375V2.1374ZM8.57812 6.42178H10.0031V12.1405H8.57812V6.42178ZM7.14375 14.9999H10.0031V16.4249H7.14375V14.9999ZM4.28438 3.57178H7.14375V4.99678H4.28438V3.57178ZM4.28438 13.5655H7.14375V14.9999H4.28438V13.5655ZM2.85938 4.99678H4.28438V6.42178H2.85938V4.99678ZM2.85938 12.1405H4.28438V13.5655H2.85938V12.1405ZM1.43437 6.42178H2.85938V7.85615H1.43437V6.42178ZM1.43437 10.7155H2.85938V12.1405H1.43437V10.7155ZM0 7.85615H1.43437V10.7155H0V7.85615Z" fill="white"/>
</svg>
