<svg width="30" height="30" viewBox="0 0 30 30" fill="none" xmlns="http://www.w3.org/2000/svg">
<path d="M21.4219 7.14375V10.0031H19.9969V14.2875H21.4219V15.7125H22.8563V17.1469H18.5719V18.5719H17.1375V19.9969H21.4219V22.8563H19.9969V25.7156H21.4219V27.1406H24.2812V25.7156H25.7156V24.2812H27.1406V21.4313H28.5656V18.5719H30V11.4281H28.5656V8.56875H27.1406V5.71875H25.7156V7.14375H21.4219ZM24.2812 4.28438H25.7156V5.71875H24.2812V4.28438ZM21.4219 2.85938H24.2812V4.28438H21.4219V2.85938Z" fill="white"/>
<path d="M18.5719 27.1406L21.4219 27.1406V28.575H18.5719V27.1406ZM18.5719 1.425H21.4219V2.85938H18.5719V1.425Z" fill="white"/>
<path d="M15.7125 27.1406H14.2875V25.7156H9.99375V27.1406H8.56875V28.575H11.4281V30H18.5719L18.5719 28.575H15.7125V27.1406ZM11.4281 0H18.5719L18.5719 1.425H11.4281V0ZM9.99375 15.7125H11.4281V17.1469H12.8531V12.8531H9.99375V15.7125ZM5.70938 25.7156H8.56875V27.1406H5.70938V25.7156ZM4.28438 24.2812H5.70938V25.7156H4.28438V24.2812Z" fill="white"/>
<path d="M2.85938 21.4312V24.2812L4.28438 24.2812L4.28438 22.8562H5.70938V21.4312H7.14375V17.1469H5.70938V15.7125H4.28438V14.2875H2.85938V12.8531H4.28438V11.4281H8.56875V10.0031H9.99375V8.56875H11.4281V10.0031H12.8531V8.56875H14.2875V5.71875H12.8531V4.28438H9.99375V2.85938H11.4281V1.425H8.56875V2.85938H5.70938V4.28438H4.28438V5.71875H2.85938V8.56875H1.425V11.4281H0V18.5719H1.425V21.4312H2.85938Z" fill="white"/>
</svg>
